STARTFONT 2.1
COMMENT
COMMENT Converted from OpenType font "uvnbaisau_regular.ttf" by "otf2bdf 3.0".
COMMENT
FONT -FreeType-UVN Bai Sau-Bold-R-Normal--7-50-100-100-P-39-ISO10646-1
SIZE 5 100 100
FONTBOUNDINGBOX 10 10 -1 -2
STARTPROPERTIES 19
FOUNDRY "FreeType"
FAMILY_NAME "UVN Bai Sau"
WEIGHT_NAME "Bold"
SLANT "R"
SETWIDTH_NAME "Normal"
ADD_STYLE_NAME ""
PIXEL_SIZE 7
POINT_SIZE 50
RESOLUTION_X 100
RESOLUTION_Y 100
SPACING "P"
AVERAGE_WIDTH 39
CHARSET_REGISTRY "ISO10646"
CHARSET_ENCODING "1"
FONT_ASCENT 7
FONT_DESCENT 1
COPYRIGHT "(c) Copyright 2001 by Tom Truong. All Rights Reserved"
_OTF_FONTFILE "uvnbaisau_regular.ttf"
_OTF_PSNAME "UVNBaiSauBold"
ENDPROPERTIES
CHARS 383
STARTCHAR 0020
ENCODING 32
SWIDTH 144 0
DWIDTH 1 0
BBX 0 0 0 0
BITMAP
ENDCHAR
STARTCHAR 0021
ENCODING 33
SWIDTH 288 0
DWIDTH 2 0
BBX 2 5 0 0
BITMAP
C0
40
40
00
C0
ENDCHAR
STARTCHAR 0022
ENCODING 34
SWIDTH 288 0
DWIDTH 2 0
BBX 2 2 0 3
BITMAP
C0
C0
ENDCHAR
STARTCHAR 0023
ENCODING 35
SWIDTH 720 0
DWIDTH 5 0
BBX 5 5 0 0
BITMAP
28
78
50
F8
60
ENDCHAR
STARTCHAR 0024
ENCODING 36
SWIDTH 432 0
DWIDTH 3 0
BBX 2 5 1 0
BITMAP
C0
80
C0
40
80
ENDCHAR
STARTCHAR 0025
ENCODING 37
SWIDTH 864 0
DWIDTH 6 0
BBX 6 5 0 0
BITMAP
48
B0
60
3C
4C
ENDCHAR
STARTCHAR 0026
ENCODING 38
SWIDTH 720 0
DWIDTH 5 0
BBX 5 5 0 0
BITMAP
70
40
E8
D8
78
ENDCHAR
STARTCHAR 0027
ENCODING 39
SWIDTH 144 0
DWIDTH 1 0
BBX 1 2 0 3
BITMAP
80
80
ENDCHAR
STARTCHAR 0028
ENCODING 40
SWIDTH 288 0
DWIDTH 2 0
BBX 1 5 1 -1
BITMAP
80
80
80
80
80
ENDCHAR
STARTCHAR 0029
ENCODING 41
SWIDTH 288 0
DWIDTH 2 0
BBX 2 6 0 -2
BITMAP
80
40
40
40
40
40
ENDCHAR
STARTCHAR 002A
ENCODING 42
SWIDTH 432 0
DWIDTH 3 0
BBX 2 3 1 2
BITMAP
C0
C0
80
ENDCHAR
STARTCHAR 002B
ENCODING 43
SWIDTH 720 0
DWIDTH 5 0
BBX 3 4 1 0
BITMAP
40
40
E0
40
ENDCHAR
STARTCHAR 002C
ENCODING 44
SWIDTH 144 0
DWIDTH 1 0
BBX 1 2 0 -1
BITMAP
80
80
ENDCHAR
STARTCHAR 002D
ENCODING 45
SWIDTH 288 0
DWIDTH 2 0
BBX 2 1 0 1
BITMAP
C0
ENDCHAR
STARTCHAR 002E
ENCODING 46
SWIDTH 144 0
DWIDTH 1 0
BBX 2 1 0 0
BITMAP
C0
ENDCHAR
STARTCHAR 002F
ENCODING 47
SWIDTH 144 0
DWIDTH 1 0
BBX 2 5 0 -1
BITMAP
40
40
80
80
80
ENDCHAR
STARTCHAR 0030
ENCODING 48
SWIDTH 432 0
DWIDTH 3 0
BBX 4 5 0 0
BITMAP
60
90
90
90
60
ENDCHAR
STARTCHAR 0031
ENCODING 49
SWIDTH 432 0
DWIDTH 3 0
BBX 2 5 1 0
BITMAP
C0
40
40
40
40
ENDCHAR
STARTCHAR 0032
ENCODING 50
SWIDTH 432 0
DWIDTH 3 0
BBX 4 5 0 0
BITMAP
60
B0
20
40
F0
ENDCHAR
STARTCHAR 0033
ENCODING 51
SWIDTH 432 0
DWIDTH 3 0
BBX 4 5 0 0
BITMAP
E0
20
60
30
E0
ENDCHAR
STARTCHAR 0034
ENCODING 52
SWIDTH 432 0
DWIDTH 3 0
BBX 4 5 0 0
BITMAP
20
60
E0
F0
20
ENDCHAR
STARTCHAR 0035
ENCODING 53
SWIDTH 432 0
DWIDTH 3 0
BBX 4 5 0 0
BITMAP
E0
C0
E0
30
E0
ENDCHAR
STARTCHAR 0036
ENCODING 54
SWIDTH 432 0
DWIDTH 3 0
BBX 4 5 0 0
BITMAP
20
40
F0
90
60
ENDCHAR
STARTCHAR 0037
ENCODING 55
SWIDTH 432 0
DWIDTH 3 0
BBX 3 5 0 0
BITMAP
E0
20
60
20
40
ENDCHAR
STARTCHAR 0038
ENCODING 56
SWIDTH 432 0
DWIDTH 3 0
BBX 4 5 0 0
BITMAP
60
B0
60
90
60
ENDCHAR
STARTCHAR 0039
ENCODING 57
SWIDTH 432 0
DWIDTH 3 0
BBX 4 5 0 0
BITMAP
60
B0
F0
20
40
ENDCHAR
STARTCHAR 003A
ENCODING 58
SWIDTH 288 0
DWIDTH 2 0
BBX 2 3 0 0
BITMAP
C0
00
C0
ENDCHAR
STARTCHAR 003B
ENCODING 59
SWIDTH 288 0
DWIDTH 2 0
BBX 2 4 0 -1
BITMAP
C0
00
C0
80
ENDCHAR
STARTCHAR 003C
ENCODING 60
SWIDTH 720 0
DWIDTH 5 0
BBX 4 4 1 0
BITMAP
30
C0
C0
30
ENDCHAR
STARTCHAR 003D
ENCODING 61
SWIDTH 720 0
DWIDTH 5 0
BBX 4 2 1 1
BITMAP
F0
F0
ENDCHAR
STARTCHAR 003E
ENCODING 62
SWIDTH 720 0
DWIDTH 5 0
BBX 4 4 1 0
BITMAP
80
70
60
80
ENDCHAR
STARTCHAR 003F
ENCODING 63
SWIDTH 432 0
DWIDTH 3 0
BBX 2 5 1 0
BITMAP
C0
40
C0
00
80
ENDCHAR
STARTCHAR 0040
ENCODING 64
SWIDTH 864 0
DWIDTH 6 0
BBX 7 6 0 -1
BITMAP
3C
42
BA
AC
B8
7C
ENDCHAR
STARTCHAR 0041
ENCODING 65
SWIDTH 576 0
DWIDTH 4 0
BBX 4 5 0 0
BITMAP
60
D0
F0
D0
D0
ENDCHAR
STARTCHAR 0042
ENCODING 66
SWIDTH 576 0
DWIDTH 4 0
BBX 4 5 0 0
BITMAP
60
F0
E0
D0
F0
ENDCHAR
STARTCHAR 0043
ENCODING 67
SWIDTH 432 0
DWIDTH 3 0
BBX 3 5 0 0
BITMAP
60
C0
80
C0
60
ENDCHAR
STARTCHAR 0044
ENCODING 68
SWIDTH 576 0
DWIDTH 4 0
BBX 4 5 0 0
BITMAP
E0
F0
D0
D0
E0
ENDCHAR
STARTCHAR 0045
ENCODING 69
SWIDTH 432 0
DWIDTH 3 0
BBX 3 5 0 0
BITMAP
60
C0
E0
C0
60
ENDCHAR
STARTCHAR 0046
ENCODING 70
SWIDTH 432 0
DWIDTH 3 0
BBX 3 5 0 0
BITMAP
60
C0
E0
C0
C0
ENDCHAR
STARTCHAR 0047
ENCODING 71
SWIDTH 720 0
DWIDTH 5 0
BBX 5 5 0 0
BITMAP
70
C0
98
C8
70
ENDCHAR
STARTCHAR 0048
ENCODING 72
SWIDTH 576 0
DWIDTH 4 0
BBX 4 5 0 0
BITMAP
D0
D0
F0
D0
D0
ENDCHAR
STARTCHAR 0049
ENCODING 73
SWIDTH 144 0
DWIDTH 1 0
BBX 2 5 0 0
BITMAP
C0
C0
C0
C0
C0
ENDCHAR
STARTCHAR 004A
ENCODING 74
SWIDTH 288 0
DWIDTH 2 0
BBX 3 5 0 0
BITMAP
60
60
60
60
C0
ENDCHAR
STARTCHAR 004B
ENCODING 75
SWIDTH 576 0
DWIDTH 4 0
BBX 4 5 0 0
BITMAP
D0
F0
F0
D0
D0
ENDCHAR
STARTCHAR 004C
ENCODING 76
SWIDTH 432 0
DWIDTH 3 0
BBX 3 5 0 0
BITMAP
C0
C0
C0
C0
60
ENDCHAR
STARTCHAR 004D
ENCODING 77
SWIDTH 720 0
DWIDTH 5 0
BBX 6 5 0 0
BITMAP
48
78
B8
BC
A4
ENDCHAR
STARTCHAR 004E
ENCODING 78
SWIDTH 576 0
DWIDTH 4 0
BBX 4 5 0 0
BITMAP
D0
D0
B0
F0
D0
ENDCHAR
STARTCHAR 004F
ENCODING 79
SWIDTH 720 0
DWIDTH 5 0
BBX 5 5 0 0
BITMAP
70
D8
88
C8
70
ENDCHAR
STARTCHAR 0050
ENCODING 80
SWIDTH 432 0
DWIDTH 3 0
BBX 4 5 0 0
BITMAP
60
D0
F0
C0
C0
ENDCHAR
STARTCHAR 0051
ENCODING 81
SWIDTH 720 0
DWIDTH 5 0
BBX 5 6 0 -1
BITMAP
70
D8
88
E8
70
20
ENDCHAR
STARTCHAR 0052
ENCODING 82
SWIDTH 576 0
DWIDTH 4 0
BBX 4 5 0 0
BITMAP
60
F0
E0
D0
D0
ENDCHAR
STARTCHAR 0053
ENCODING 83
SWIDTH 432 0
DWIDTH 3 0
BBX 3 5 0 0
BITMAP
60
80
60
20
E0
ENDCHAR
STARTCHAR 0054
ENCODING 84
SWIDTH 432 0
DWIDTH 3 0
BBX 3 5 0 0
BITMAP
E0
40
40
40
40
ENDCHAR
STARTCHAR 0055
ENCODING 85
SWIDTH 576 0
DWIDTH 4 0
BBX 4 5 0 0
BITMAP
D0
D0
D0
D0
70
ENDCHAR
STARTCHAR 0056
ENCODING 86
SWIDTH 432 0
DWIDTH 3 0
BBX 4 5 0 0
BITMAP
90
B0
E0
60
60
ENDCHAR
STARTCHAR 0057
ENCODING 87
SWIDTH 864 0
DWIDTH 6 0
BBX 6 5 0 0
BITMAP
D4
D4
D4
D4
7C
ENDCHAR
STARTCHAR 0058
ENCODING 88
SWIDTH 576 0
DWIDTH 4 0
BBX 4 5 0 0
BITMAP
90
60
20
60
D0
ENDCHAR
STARTCHAR 0059
ENCODING 89
SWIDTH 432 0
DWIDTH 3 0
BBX 4 5 0 0
BITMAP
B0
B0
E0
60
60
ENDCHAR
STARTCHAR 005A
ENCODING 90
SWIDTH 432 0
DWIDTH 3 0
BBX 4 5 0 0
BITMAP
F0
20
60
C0
F0
ENDCHAR
STARTCHAR 005B
ENCODING 91
SWIDTH 288 0
DWIDTH 2 0
BBX 1 7 1 -2
BITMAP
80
80
80
80
80
80
80
ENDCHAR
STARTCHAR 005C
ENCODING 92
SWIDTH 144 0
DWIDTH 1 0
BBX 2 6 0 -1
BITMAP
80
80
80
80
40
40
ENDCHAR
STARTCHAR 005D
ENCODING 93
SWIDTH 288 0
DWIDTH 2 0
BBX 2 7 0 -2
BITMAP
C0
40
40
40
40
40
C0
ENDCHAR
STARTCHAR 005E
ENCODING 94
SWIDTH 864 0
DWIDTH 6 0
BBX 3 2 2 3
BITMAP
40
A0
ENDCHAR
STARTCHAR 005F
ENCODING 95
SWIDTH 432 0
DWIDTH 3 0
BBX 3 1 0 -2
BITMAP
E0
ENDCHAR
STARTCHAR 0060
ENCODING 96
SWIDTH 432 0
DWIDTH 3 0
BBX 1 1 1 4
BITMAP
80
ENDCHAR
STARTCHAR 0061
ENCODING 97
SWIDTH 432 0
DWIDTH 3 0
BBX 4 3 0 1
BITMAP
E0
90
50
ENDCHAR
STARTCHAR 0062
ENCODING 98
SWIDTH 432 0
DWIDTH 3 0
BBX 4 5 0 0
BITMAP
80
80
B0
90
60
ENDCHAR
STARTCHAR 0063
ENCODING 99
SWIDTH 288 0
DWIDTH 2 0
BBX 3 3 0 0
BITMAP
E0
80
60
ENDCHAR
STARTCHAR 0064
ENCODING 100
SWIDTH 432 0
DWIDTH 3 0
BBX 4 5 0 0
BITMAP
10
10
D0
90
60
ENDCHAR
STARTCHAR 0065
ENCODING 101
SWIDTH 432 0
DWIDTH 3 0
BBX 3 3 0 1
BITMAP
E0
80
60
ENDCHAR
STARTCHAR 0066
ENCODING 102
SWIDTH 288 0
DWIDTH 2 0
BBX 2 5 0 0
BITMAP
40
80
C0
80
80
ENDCHAR
STARTCHAR 0067
ENCODING 103
SWIDTH 432 0
DWIDTH 3 0
BBX 4 5 0 -1
BITMAP
E0
90
50
30
40
ENDCHAR
STARTCHAR 0068
ENCODING 104
SWIDTH 432 0
DWIDTH 3 0
BBX 3 5 0 0
BITMAP
80
80
E0
A0
A0
ENDCHAR
STARTCHAR 0069
ENCODING 105
SWIDTH 144 0
DWIDTH 1 0
BBX 1 5 0 0
BITMAP
80
00
80
80
80
ENDCHAR
STARTCHAR 006A
ENCODING 106
SWIDTH 144 0
DWIDTH 1 0
BBX 2 6 -1 -1
BITMAP
40
00
40
40
40
C0
ENDCHAR
STARTCHAR 006B
ENCODING 107
SWIDTH 432 0
DWIDTH 3 0
BBX 3 5 0 0
BITMAP
80
80
A0
E0
A0
ENDCHAR
STARTCHAR 006C
ENCODING 108
SWIDTH 144 0
DWIDTH 1 0
BBX 1 5 0 0
BITMAP
80
80
80
80
80
ENDCHAR
STARTCHAR 006D
ENCODING 109
SWIDTH 720 0
DWIDTH 5 0
BBX 5 3 0 1
BITMAP
F8
A8
A8
ENDCHAR
STARTCHAR 006E
ENCODING 110
SWIDTH 432 0
DWIDTH 3 0
BBX 3 3 0 1
BITMAP
E0
A0
A0
ENDCHAR
STARTCHAR 006F
ENCODING 111
SWIDTH 432 0
DWIDTH 3 0
BBX 4 3 0 1
BITMAP
E0
90
60
ENDCHAR
STARTCHAR 0070
ENCODING 112
SWIDTH 432 0
DWIDTH 3 0
BBX 4 4 0 0
BITMAP
F0
90
A0
80
ENDCHAR
STARTCHAR 0071
ENCODING 113
SWIDTH 432 0
DWIDTH 3 0
BBX 4 4 0 0
BITMAP
E0
90
50
10
ENDCHAR
STARTCHAR 0072
ENCODING 114
SWIDTH 288 0
DWIDTH 2 0
BBX 3 3 0 0
BITMAP
E0
80
80
ENDCHAR
STARTCHAR 0073
ENCODING 115
SWIDTH 432 0
DWIDTH 3 0
BBX 3 3 0 0
BITMAP
C0
60
E0
ENDCHAR
STARTCHAR 0074
ENCODING 116
SWIDTH 288 0
DWIDTH 2 0
BBX 2 4 0 0
BITMAP
80
C0
80
40
ENDCHAR
STARTCHAR 0075
ENCODING 117
SWIDTH 432 0
DWIDTH 3 0
BBX 3 3 0 0
BITMAP
A0
A0
60
ENDCHAR
STARTCHAR 0076
ENCODING 118
SWIDTH 432 0
DWIDTH 3 0
BBX 3 3 0 0
BITMAP
A0
60
40
ENDCHAR
STARTCHAR 0077
ENCODING 119
SWIDTH 720 0
DWIDTH 5 0
BBX 5 3 0 0
BITMAP
A8
A8
78
ENDCHAR
STARTCHAR 0078
ENCODING 120
SWIDTH 432 0
DWIDTH 3 0
BBX 3 3 0 0
BITMAP
E0
40
A0
ENDCHAR
STARTCHAR 0079
ENCODING 121
SWIDTH 432 0
DWIDTH 3 0
BBX 3 4 0 -1
BITMAP
A0
A0
60
40
ENDCHAR
STARTCHAR 007A
ENCODING 122
SWIDTH 432 0
DWIDTH 3 0
BBX 3 3 0 0
BITMAP
E0
40
E0
ENDCHAR
STARTCHAR 007B
ENCODING 123
SWIDTH 432 0
DWIDTH 3 0
BBX 2 6 1 -1
BITMAP
C0
80
80
80
80
C0
ENDCHAR
STARTCHAR 007C
ENCODING 124
SWIDTH 432 0
DWIDTH 3 0
BBX 1 7 1 -2
BITMAP
80
80
80
80
80
80
80
ENDCHAR
STARTCHAR 007D
ENCODING 125
SWIDTH 432 0
DWIDTH 3 0
BBX 3 6 0 -1
BITMAP
C0
40
40
60
40
40
ENDCHAR
STARTCHAR 007E
ENCODING 126
SWIDTH 720 0
DWIDTH 5 0
BBX 4 2 1 1
BITMAP
C0
30
ENDCHAR
STARTCHAR 0080
ENCODING 128
SWIDTH 432 0
DWIDTH 3 0
BBX 3 5 1 0
BITMAP
60
80
80
80
E0
ENDCHAR
STARTCHAR 00A0
ENCODING 160
SWIDTH 432 0
DWIDTH 3 0
BBX 0 0 0 0
BITMAP
ENDCHAR
STARTCHAR 00A1
ENCODING 161
SWIDTH 288 0
DWIDTH 2 0
BBX 2 5 0 0
BITMAP
C0
00
40
40
C0
ENDCHAR
STARTCHAR 00A2
ENCODING 162
SWIDTH 432 0
DWIDTH 3 0
BBX 2 5 1 0
BITMAP
40
C0
80
C0
40
ENDCHAR
STARTCHAR 00A3
ENCODING 163
SWIDTH 432 0
DWIDTH 3 0
BBX 4 5 0 0
BITMAP
60
40
C0
50
E0
ENDCHAR
STARTCHAR 00A4
ENCODING 164
SWIDTH 432 0
DWIDTH 3 0
BBX 3 5 1 0
BITMAP
60
80
80
80
E0
ENDCHAR
STARTCHAR 00A5
ENCODING 165
SWIDTH 576 0
DWIDTH 4 0
BBX 4 5 0 0
BITMAP
90
F0
F0
20
20
ENDCHAR
STARTCHAR 00A6
ENCODING 166
SWIDTH 432 0
DWIDTH 3 0
BBX 1 6 1 -1
BITMAP
80
80
80
00
80
80
ENDCHAR
STARTCHAR 00A7
ENCODING 167
SWIDTH 432 0
DWIDTH 3 0
BBX 3 6 0 -1
BITMAP
60
40
A0
60
60
40
ENDCHAR
STARTCHAR 00A8
ENCODING 168
SWIDTH 432 0
DWIDTH 3 0
BBX 2 1 1 4
BITMAP
C0
ENDCHAR
STARTCHAR 00A9
ENCODING 169
SWIDTH 720 0
DWIDTH 5 0
BBX 5 5 0 0
BITMAP
70
B8
C8
B8
70
ENDCHAR
STARTCHAR 00AA
ENCODING 170
SWIDTH 288 0
DWIDTH 2 0
BBX 3 3 0 2
BITMAP
C0
A0
60
ENDCHAR
STARTCHAR 00AB
ENCODING 171
SWIDTH 432 0
DWIDTH 3 0
BBX 3 2 0 1
BITMAP
60
E0
ENDCHAR
STARTCHAR 00AC
ENCODING 172
SWIDTH 720 0
DWIDTH 5 0
BBX 4 2 1 1
BITMAP
F0
10
ENDCHAR
STARTCHAR 00AD
ENCODING 173
SWIDTH 288 0
DWIDTH 2 0
BBX 2 1 0 1
BITMAP
C0
ENDCHAR
STARTCHAR 00AE
ENCODING 174
SWIDTH 720 0
DWIDTH 5 0
BBX 5 5 0 0
BITMAP
70
B8
B8
B8
70
ENDCHAR
STARTCHAR 00AF
ENCODING 175
SWIDTH 432 0
DWIDTH 3 0
BBX 2 1 1 4
BITMAP
C0
ENDCHAR
STARTCHAR 00B0
ENCODING 176
SWIDTH 288 0
DWIDTH 2 0
BBX 2 2 0 3
BITMAP
C0
C0
ENDCHAR
STARTCHAR 00B1
ENCODING 177
SWIDTH 720 0
DWIDTH 5 0
BBX 4 4 1 0
BITMAP
40
F0
40
F0
ENDCHAR
STARTCHAR 00B2
ENCODING 178
SWIDTH 288 0
DWIDTH 2 0
BBX 2 3 0 2
BITMAP
C0
C0
C0
ENDCHAR
STARTCHAR 00B3
ENCODING 179
SWIDTH 288 0
DWIDTH 2 0
BBX 2 3 0 2
BITMAP
C0
40
C0
ENDCHAR
STARTCHAR 00B4
ENCODING 180
SWIDTH 432 0
DWIDTH 3 0
BBX 1 1 1 4
BITMAP
80
ENDCHAR
STARTCHAR 00B5
ENCODING 181
SWIDTH 576 0
DWIDTH 4 0
BBX 4 5 0 -1
BITMAP
50
D0
D0
F0
80
ENDCHAR
STARTCHAR 00B6
ENCODING 182
SWIDTH 432 0
DWIDTH 3 0
BBX 3 5 0 0
BITMAP
E0
E0
60
60
60
ENDCHAR
STARTCHAR 00B7
ENCODING 183
SWIDTH 144 0
DWIDTH 1 0
BBX 2 1 0 2
BITMAP
C0
ENDCHAR
STARTCHAR 00B8
ENCODING 184
SWIDTH 432 0
DWIDTH 3 0
BBX 2 2 1 -2
BITMAP
40
80
ENDCHAR
STARTCHAR 00B9
ENCODING 185
SWIDTH 288 0
DWIDTH 2 0
BBX 1 3 1 2
BITMAP
80
80
80
ENDCHAR
STARTCHAR 00BA
ENCODING 186
SWIDTH 288 0
DWIDTH 2 0
BBX 3 3 0 2
BITMAP
C0
A0
40
ENDCHAR
STARTCHAR 00BB
ENCODING 187
SWIDTH 432 0
DWIDTH 3 0
BBX 2 2 1 1
BITMAP
40
C0
ENDCHAR
STARTCHAR 00BC
ENCODING 188
SWIDTH 864 0
DWIDTH 6 0
BBX 5 5 1 0
BITMAP
90
A0
C8
58
88
ENDCHAR
STARTCHAR 00BD
ENCODING 189
SWIDTH 864 0
DWIDTH 6 0
BBX 5 5 1 0
BITMAP
90
A0
D8
58
98
ENDCHAR
STARTCHAR 00BE
ENCODING 190
SWIDTH 864 0
DWIDTH 6 0
BBX 6 5 0 0
BITMAP
C8
50
E4
2C
44
ENDCHAR
STARTCHAR 00BF
ENCODING 191
SWIDTH 432 0
DWIDTH 3 0
BBX 3 5 0 0
BITMAP
60
00
40
80
60
ENDCHAR
STARTCHAR 00C0
ENCODING 192
SWIDTH 576 0
DWIDTH 4 0
BBX 4 7 0 0
BITMAP
40
20
60
D0
F0
D0
D0
ENDCHAR
STARTCHAR 00C1
ENCODING 193
SWIDTH 576 0
DWIDTH 4 0
BBX 4 7 0 0
BITMAP
20
00
60
D0
F0
D0
D0
ENDCHAR
STARTCHAR 00C2
ENCODING 194
SWIDTH 576 0
DWIDTH 4 0
BBX 4 6 0 0
BITMAP
60
60
D0
F0
D0
D0
ENDCHAR
STARTCHAR 00C3
ENCODING 195
SWIDTH 576 0
DWIDTH 4 0
BBX 4 6 0 0
BITMAP
20
60
D0
F0
D0
D0
ENDCHAR
STARTCHAR 00C4
ENCODING 196
SWIDTH 576 0
DWIDTH 4 0
BBX 4 6 0 0
BITMAP
40
60
D0
F0
D0
D0
ENDCHAR
STARTCHAR 00C5
ENCODING 197
SWIDTH 576 0
DWIDTH 4 0
BBX 4 7 0 0
BITMAP
20
60
60
D0
F0
D0
D0
ENDCHAR
STARTCHAR 00C6
ENCODING 198
SWIDTH 864 0
DWIDTH 6 0
BBX 6 5 0 0
BITMAP
6C
D0
FC
D0
DC
ENDCHAR
STARTCHAR 00C7
ENCODING 199
SWIDTH 432 0
DWIDTH 3 0
BBX 3 7 0 -2
BITMAP
60
C0
80
C0
60
20
60
ENDCHAR
STARTCHAR 00C8
ENCODING 200
SWIDTH 432 0
DWIDTH 3 0
BBX 3 7 0 0
BITMAP
40
20
60
C0
E0
C0
60
ENDCHAR
STARTCHAR 00C9
ENCODING 201
SWIDTH 432 0
DWIDTH 3 0
BBX 3 7 0 0
BITMAP
20
00
60
C0
E0
C0
60
ENDCHAR
STARTCHAR 00CA
ENCODING 202
SWIDTH 432 0
DWIDTH 3 0
BBX 3 6 0 0
BITMAP
60
60
C0
E0
C0
60
ENDCHAR
STARTCHAR 00CB
ENCODING 203
SWIDTH 432 0
DWIDTH 3 0
BBX 3 5 0 1
BITMAP
60
C0
E0
C0
60
ENDCHAR
STARTCHAR 00CC
ENCODING 204
SWIDTH 144 0
DWIDTH 1 0
BBX 2 7 0 0
BITMAP
80
00
C0
C0
C0
C0
C0
ENDCHAR
STARTCHAR 00CD
ENCODING 205
SWIDTH 144 0
DWIDTH 1 0
BBX 2 7 0 0
BITMAP
40
00
C0
C0
C0
C0
C0
ENDCHAR
STARTCHAR 00CE
ENCODING 206
SWIDTH 144 0
DWIDTH 1 0
BBX 2 6 0 1
BITMAP
C0
C0
C0
C0
C0
C0
ENDCHAR
STARTCHAR 00CF
ENCODING 207
SWIDTH 144 0
DWIDTH 1 0
BBX 2 6 0 0
BITMAP
40
C0
C0
C0
C0
C0
ENDCHAR
STARTCHAR 00D0
ENCODING 208
SWIDTH 576 0
DWIDTH 4 0
BBX 4 5 0 0
BITMAP
E0
F0
D0
D0
E0
ENDCHAR
STARTCHAR 00D1
ENCODING 209
SWIDTH 576 0
DWIDTH 4 0
BBX 4 6 0 0
BITMAP
60
D0
D0
B0
F0
D0
ENDCHAR
STARTCHAR 00D2
ENCODING 210
SWIDTH 720 0
DWIDTH 5 0
BBX 5 7 0 0
BITMAP
20
00
70
D8
88
C8
70
ENDCHAR
STARTCHAR 00D3
ENCODING 211
SWIDTH 720 0
DWIDTH 5 0
BBX 5 7 0 0
BITMAP
10
20
70
D8
88
C8
70
ENDCHAR
STARTCHAR 00D4
ENCODING 212
SWIDTH 720 0
DWIDTH 5 0
BBX 5 6 0 0
BITMAP
30
70
D8
88
C8
70
ENDCHAR
STARTCHAR 00D5
ENCODING 213
SWIDTH 720 0
DWIDTH 5 0
BBX 5 6 0 0
BITMAP
20
70
D8
88
C8
70
ENDCHAR
STARTCHAR 00D6
ENCODING 214
SWIDTH 720 0
DWIDTH 5 0
BBX 5 5 0 1
BITMAP
70
D8
88
C8
70
ENDCHAR
STARTCHAR 00D7
ENCODING 215
SWIDTH 720 0
DWIDTH 5 0
BBX 4 4 1 0
BITMAP
90
60
60
90
ENDCHAR
STARTCHAR 00D8
ENCODING 216
SWIDTH 720 0
DWIDTH 5 0
BBX 5 5 0 0
BITMAP
78
D8
A8
C8
70
ENDCHAR
STARTCHAR 00D9
ENCODING 217
SWIDTH 576 0
DWIDTH 4 0
BBX 4 7 0 0
BITMAP
40
20
D0
D0
D0
D0
70
ENDCHAR
STARTCHAR 00DA
ENCODING 218
SWIDTH 576 0
DWIDTH 4 0
BBX 4 7 0 0
BITMAP
20
00
D0
D0
D0
D0
70
ENDCHAR
STARTCHAR 00DB
ENCODING 219
SWIDTH 576 0
DWIDTH 4 0
BBX 4 7 0 0
BITMAP
20
40
D0
D0
D0
D0
70
ENDCHAR
STARTCHAR 00DC
ENCODING 220
SWIDTH 576 0
DWIDTH 4 0
BBX 4 6 0 0
BITMAP
40
D0
D0
D0
D0
70
ENDCHAR
STARTCHAR 00DD
ENCODING 221
SWIDTH 432 0
DWIDTH 3 0
BBX 4 7 0 0
BITMAP
20
00
B0
B0
E0
60
60
ENDCHAR
STARTCHAR 00DE
ENCODING 222
SWIDTH 432 0
DWIDTH 3 0
BBX 4 5 0 0
BITMAP
C0
F0
D0
E0
C0
ENDCHAR
STARTCHAR 00DF
ENCODING 223
SWIDTH 576 0
DWIDTH 4 0
BBX 4 5 0 0
BITMAP
60
A0
A0
90
B0
ENDCHAR
STARTCHAR 00E0
ENCODING 224
SWIDTH 432 0
DWIDTH 3 0
BBX 4 5 0 0
BITMAP
40
00
E0
90
50
ENDCHAR
STARTCHAR 00E1
ENCODING 225
SWIDTH 432 0
DWIDTH 3 0
BBX 4 5 0 0
BITMAP
40
00
E0
90
50
ENDCHAR
STARTCHAR 00E2
ENCODING 226
SWIDTH 432 0
DWIDTH 3 0
BBX 4 5 0 0
BITMAP
60
00
E0
90
50
ENDCHAR
STARTCHAR 00E3
ENCODING 227
SWIDTH 432 0
DWIDTH 3 0
BBX 4 5 0 0
BITMAP
60
00
E0
90
50
ENDCHAR
STARTCHAR 00E4
ENCODING 228
SWIDTH 432 0
DWIDTH 3 0
BBX 4 5 0 0
BITMAP
60
00
E0
90
50
ENDCHAR
STARTCHAR 00E5
ENCODING 229
SWIDTH 432 0
DWIDTH 3 0
BBX 4 5 0 1
BITMAP
60
00
E0
90
50
ENDCHAR
STARTCHAR 00E6
ENCODING 230
SWIDTH 720 0
DWIDTH 5 0
BBX 6 4 0 0
BITMAP
40
3C
E0
F8
ENDCHAR
STARTCHAR 00E7
ENCODING 231
SWIDTH 288 0
DWIDTH 2 0
BBX 3 5 0 -2
BITMAP
E0
80
60
40
40
ENDCHAR
STARTCHAR 00E8
ENCODING 232
SWIDTH 432 0
DWIDTH 3 0
BBX 3 5 0 0
BITMAP
40
00
E0
80
60
ENDCHAR
STARTCHAR 00E9
ENCODING 233
SWIDTH 432 0
DWIDTH 3 0
BBX 3 5 0 0
BITMAP
40
00
E0
80
60
ENDCHAR
STARTCHAR 00EA
ENCODING 234
SWIDTH 432 0
DWIDTH 3 0
BBX 3 5 0 0
BITMAP
60
00
E0
80
60
ENDCHAR
STARTCHAR 00EB
ENCODING 235
SWIDTH 432 0
DWIDTH 3 0
BBX 3 5 0 0
BITMAP
60
00
E0
80
60
ENDCHAR
STARTCHAR 00EC
ENCODING 236
SWIDTH 144 0
DWIDTH 1 0
BBX 1 5 0 0
BITMAP
80
00
80
80
80
ENDCHAR
STARTCHAR 00ED
ENCODING 237
SWIDTH 144 0
DWIDTH 1 0
BBX 1 5 0 0
BITMAP
80
00
80
80
80
ENDCHAR
STARTCHAR 00EE
ENCODING 238
SWIDTH 144 0
DWIDTH 1 0
BBX 2 5 0 0
BITMAP
C0
00
80
80
80
ENDCHAR
STARTCHAR 00EF
ENCODING 239
SWIDTH 144 0
DWIDTH 1 0
BBX 2 5 0 0
BITMAP
C0
00
80
80
80
ENDCHAR
STARTCHAR 00F0
ENCODING 240
SWIDTH 432 0
DWIDTH 3 0
BBX 4 5 0 0
BITMAP
60
20
E0
B0
60
ENDCHAR
STARTCHAR 00F1
ENCODING 241
SWIDTH 432 0
DWIDTH 3 0
BBX 3 5 0 0
BITMAP
60
00
E0
A0
A0
ENDCHAR
STARTCHAR 00F2
ENCODING 242
SWIDTH 432 0
DWIDTH 3 0
BBX 4 5 0 0
BITMAP
40
00
E0
90
60
ENDCHAR
STARTCHAR 00F3
ENCODING 243
SWIDTH 432 0
DWIDTH 3 0
BBX 4 5 0 0
BITMAP
40
00
E0
90
60
ENDCHAR
STARTCHAR 00F4
ENCODING 244
SWIDTH 432 0
DWIDTH 3 0
BBX 4 5 0 0
BITMAP
60
00
E0
90
60
ENDCHAR
STARTCHAR 00F5
ENCODING 245
SWIDTH 432 0
DWIDTH 3 0
BBX 4 5 0 0
BITMAP
60
00
E0
90
60
ENDCHAR
STARTCHAR 00F6
ENCODING 246
SWIDTH 432 0
DWIDTH 3 0
BBX 4 5 0 0
BITMAP
60
00
E0
90
60
ENDCHAR
STARTCHAR 00F7
ENCODING 247
SWIDTH 720 0
DWIDTH 5 0
BBX 3 4 1 0
BITMAP
40
00
E0
40
ENDCHAR
STARTCHAR 00F8
ENCODING 248
SWIDTH 432 0
DWIDTH 3 0
BBX 4 4 0 0
BITMAP
10
E0
D0
E0
ENDCHAR
STARTCHAR 00F9
ENCODING 249
SWIDTH 432 0
DWIDTH 3 0
BBX 3 5 0 0
BITMAP
40
00
A0
A0
60
ENDCHAR
STARTCHAR 00FA
ENCODING 250
SWIDTH 432 0
DWIDTH 3 0
BBX 3 5 0 0
BITMAP
40
00
A0
A0
60
ENDCHAR
STARTCHAR 00FB
ENCODING 251
SWIDTH 432 0
DWIDTH 3 0
BBX 3 5 0 0
BITMAP
60
00
A0
A0
60
ENDCHAR
STARTCHAR 00FC
ENCODING 252
SWIDTH 432 0
DWIDTH 3 0
BBX 3 5 0 0
BITMAP
60
00
A0
A0
60
ENDCHAR
STARTCHAR 00FD
ENCODING 253
SWIDTH 432 0
DWIDTH 3 0
BBX 3 6 0 -1
BITMAP
40
00
A0
A0
60
40
ENDCHAR
STARTCHAR 00FE
ENCODING 254
SWIDTH 432 0
DWIDTH 3 0
BBX 4 6 0 -1
BITMAP
80
80
F0
90
A0
80
ENDCHAR
STARTCHAR 00FF
ENCODING 255
SWIDTH 432 0
DWIDTH 3 0
BBX 3 6 0 -1
BITMAP
60
00
A0
A0
60
40
ENDCHAR
STARTCHAR 0102
ENCODING 258
SWIDTH 576 0
DWIDTH 4 0
BBX 4 6 0 0
BITMAP
60
60
D0
F0
D0
D0
ENDCHAR
STARTCHAR 0103
ENCODING 259
SWIDTH 432 0
DWIDTH 3 0
BBX 4 5 0 0
BITMAP
60
00
E0
90
50
ENDCHAR
STARTCHAR 0106
ENCODING 262
SWIDTH 432 0
DWIDTH 3 0
BBX 3 7 0 0
BITMAP
20
00
60
C0
80
C0
60
ENDCHAR
STARTCHAR 0107
ENCODING 263
SWIDTH 288 0
DWIDTH 2 0
BBX 3 5 0 0
BITMAP
40
00
E0
80
60
ENDCHAR
STARTCHAR 010C
ENCODING 268
SWIDTH 432 0
DWIDTH 3 0
BBX 3 7 0 0
BITMAP
40
20
60
C0
80
C0
60
ENDCHAR
STARTCHAR 010D
ENCODING 269
SWIDTH 288 0
DWIDTH 2 0
BBX 3 5 0 0
BITMAP
40
00
E0
80
60
ENDCHAR
STARTCHAR 0110
ENCODING 272
SWIDTH 576 0
DWIDTH 4 0
BBX 4 5 0 0
BITMAP
E0
F0
D0
D0
E0
ENDCHAR
STARTCHAR 0111
ENCODING 273
SWIDTH 432 0
DWIDTH 3 0
BBX 4 5 0 0
BITMAP
10
30
D0
90
60
ENDCHAR
STARTCHAR 011E
ENCODING 286
SWIDTH 720 0
DWIDTH 5 0
BBX 5 6 0 0
BITMAP
20
70
C0
98
C8
70
ENDCHAR
STARTCHAR 011F
ENCODING 287
SWIDTH 432 0
DWIDTH 3 0
BBX 4 7 0 -2
BITMAP
60
00
E0
90
50
30
40
ENDCHAR
STARTCHAR 0128
ENCODING 296
SWIDTH 144 0
DWIDTH 1 0
BBX 2 6 0 0
BITMAP
C0
C0
C0
C0
C0
C0
ENDCHAR
STARTCHAR 0129
ENCODING 297
SWIDTH 144 0
DWIDTH 1 0
BBX 2 5 0 0
BITMAP
C0
00
80
80
80
ENDCHAR
STARTCHAR 0130
ENCODING 304
SWIDTH 144 0
DWIDTH 1 0
BBX 2 5 0 1
BITMAP
C0
C0
C0
C0
C0
ENDCHAR
STARTCHAR 0131
ENCODING 305
SWIDTH 144 0
DWIDTH 1 0
BBX 1 3 0 0
BITMAP
80
80
80
ENDCHAR
STARTCHAR 0141
ENCODING 321
SWIDTH 432 0
DWIDTH 3 0
BBX 3 5 0 0
BITMAP
C0
C0
C0
C0
60
ENDCHAR
STARTCHAR 0142
ENCODING 322
SWIDTH 144 0
DWIDTH 1 0
BBX 2 5 0 0
BITMAP
80
80
C0
80
80
ENDCHAR
STARTCHAR 0152
ENCODING 338
SWIDTH 1008 0
DWIDTH 7 0
BBX 7 5 0 0
BITMAP
76
DC
8E
C8
76
ENDCHAR
STARTCHAR 0153
ENCODING 339
SWIDTH 864 0
DWIDTH 6 0
BBX 6 3 0 1
BITMAP
FC
9C
7C
ENDCHAR
STARTCHAR 015E
ENCODING 350
SWIDTH 432 0
DWIDTH 3 0
BBX 3 7 0 -2
BITMAP
60
80
60
20
E0
20
60
ENDCHAR
STARTCHAR 015F
ENCODING 351
SWIDTH 432 0
DWIDTH 3 0
BBX 3 5 0 -2
BITMAP
C0
60
E0
40
40
ENDCHAR
STARTCHAR 0160
ENCODING 352
SWIDTH 432 0
DWIDTH 3 0
BBX 3 7 0 0
BITMAP
20
40
60
80
60
20
E0
ENDCHAR
STARTCHAR 0161
ENCODING 353
SWIDTH 432 0
DWIDTH 3 0
BBX 3 5 0 0
BITMAP
C0
00
C0
60
E0
ENDCHAR
STARTCHAR 0168
ENCODING 360
SWIDTH 576 0
DWIDTH 4 0
BBX 4 6 0 0
BITMAP
20
D0
D0
D0
D0
70
ENDCHAR
STARTCHAR 0169
ENCODING 361
SWIDTH 432 0
DWIDTH 3 0
BBX 3 5 0 0
BITMAP
60
00
A0
A0
60
ENDCHAR
STARTCHAR 0178
ENCODING 376
SWIDTH 432 0
DWIDTH 3 0
BBX 4 6 0 0
BITMAP
20
B0
B0
E0
60
60
ENDCHAR
STARTCHAR 017D
ENCODING 381
SWIDTH 432 0
DWIDTH 3 0
BBX 4 7 0 0
BITMAP
20
40
F0
20
60
C0
F0
ENDCHAR
STARTCHAR 017E
ENCODING 382
SWIDTH 432 0
DWIDTH 3 0
BBX 3 5 0 0
BITMAP
C0
00
E0
40
E0
ENDCHAR
STARTCHAR 0192
ENCODING 402
SWIDTH 432 0
DWIDTH 3 0
BBX 4 6 0 -1
BITMAP
30
20
F0
40
40
40
ENDCHAR
STARTCHAR 01A0
ENCODING 416
SWIDTH 720 0
DWIDTH 5 0
BBX 5 5 0 0
BITMAP
78
D8
88
C8
70
ENDCHAR
STARTCHAR 01A1
ENCODING 417
SWIDTH 432 0
DWIDTH 3 0
BBX 4 4 0 0
BITMAP
10
E0
90
60
ENDCHAR
STARTCHAR 01AF
ENCODING 431
SWIDTH 576 0
DWIDTH 4 0
BBX 5 5 0 0
BITMAP
D8
D0
D0
D0
70
ENDCHAR
STARTCHAR 01B0
ENCODING 432
SWIDTH 432 0
DWIDTH 3 0
BBX 4 4 0 0
BITMAP
10
B0
A0
60
ENDCHAR
STARTCHAR 02C6
ENCODING 710
SWIDTH 432 0
DWIDTH 3 0
BBX 1 1 1 4
BITMAP
80
ENDCHAR
STARTCHAR 02C7
ENCODING 711
SWIDTH 432 0
DWIDTH 3 0
BBX 1 1 1 4
BITMAP
80
ENDCHAR
STARTCHAR 02C9
ENCODING 713
SWIDTH 432 0
DWIDTH 3 0
BBX 2 1 1 4
BITMAP
C0
ENDCHAR
STARTCHAR 02D8
ENCODING 728
SWIDTH 432 0
DWIDTH 3 0
BBX 2 1 1 4
BITMAP
C0
ENDCHAR
STARTCHAR 02D9
ENCODING 729
SWIDTH 432 0
DWIDTH 3 0
BBX 1 1 1 4
BITMAP
80
ENDCHAR
STARTCHAR 02DA
ENCODING 730
SWIDTH 432 0
DWIDTH 3 0
BBX 2 2 1 4
BITMAP
80
C0
ENDCHAR
STARTCHAR 02DB
ENCODING 731
SWIDTH 432 0
DWIDTH 3 0
BBX 1 1 1 -2
BITMAP
80
ENDCHAR
STARTCHAR 02DC
ENCODING 732
SWIDTH 432 0
DWIDTH 3 0
BBX 2 1 1 4
BITMAP
C0
ENDCHAR
STARTCHAR 02DD
ENCODING 733
SWIDTH 432 0
DWIDTH 3 0
BBX 2 1 1 4
BITMAP
C0
ENDCHAR
STARTCHAR 0394
ENCODING 916
SWIDTH 576 0
DWIDTH 4 0
BBX 5 5 0 0
BITMAP
20
50
50
50
F8
ENDCHAR
STARTCHAR 03A9
ENCODING 937
SWIDTH 720 0
DWIDTH 5 0
BBX 5 5 0 0
BITMAP
78
C8
C8
48
D8
ENDCHAR
STARTCHAR 03BC
ENCODING 956
SWIDTH 576 0
DWIDTH 4 0
BBX 4 5 0 -1
BITMAP
50
D0
D0
F0
80
ENDCHAR
STARTCHAR 03C0
ENCODING 960
SWIDTH 720 0
DWIDTH 5 0
BBX 5 4 0 0
BITMAP
78
D0
50
50
ENDCHAR
STARTCHAR 1EA0
ENCODING 7840
SWIDTH 576 0
DWIDTH 4 0
BBX 4 7 0 -2
BITMAP
60
D0
F0
D0
D0
00
20
ENDCHAR
STARTCHAR 1EA1
ENCODING 7841
SWIDTH 432 0
DWIDTH 3 0
BBX 4 5 0 -1
BITMAP
E0
90
50
00
60
ENDCHAR
STARTCHAR 1EA2
ENCODING 7842
SWIDTH 576 0
DWIDTH 4 0
BBX 4 7 0 0
BITMAP
20
20
60
D0
F0
D0
D0
ENDCHAR
STARTCHAR 1EA3
ENCODING 7843
SWIDTH 432 0
DWIDTH 3 0
BBX 4 5 0 0
BITMAP
20
00
E0
90
50
ENDCHAR
STARTCHAR 1EA4
ENCODING 7844
SWIDTH 576 0
DWIDTH 4 0
BBX 4 8 0 0
BITMAP
20
00
60
60
D0
F0
D0
D0
ENDCHAR
STARTCHAR 1EA5
ENCODING 7845
SWIDTH 432 0
DWIDTH 3 0
BBX 4 6 0 0
BITMAP
40
60
00
E0
90
50
ENDCHAR
STARTCHAR 1EA6
ENCODING 7846
SWIDTH 576 0
DWIDTH 4 0
BBX 4 8 0 0
BITMAP
20
00
60
60
D0
F0
D0
D0
ENDCHAR
STARTCHAR 1EA7
ENCODING 7847
SWIDTH 432 0
DWIDTH 3 0
BBX 4 6 0 0
BITMAP
20
60
00
E0
90
50
ENDCHAR
STARTCHAR 1EA8
ENCODING 7848
SWIDTH 576 0
DWIDTH 4 0
BBX 4 8 0 0
BITMAP
10
00
60
60
D0
F0
D0
D0
ENDCHAR
STARTCHAR 1EA9
ENCODING 7849
SWIDTH 432 0
DWIDTH 3 0
BBX 4 6 0 0
BITMAP
20
60
00
E0
90
50
ENDCHAR
STARTCHAR 1EAA
ENCODING 7850
SWIDTH 576 0
DWIDTH 4 0
BBX 4 7 0 1
BITMAP
20
60
60
D0
F0
D0
D0
ENDCHAR
STARTCHAR 1EAB
ENCODING 7851
SWIDTH 432 0
DWIDTH 3 0
BBX 4 6 0 0
BITMAP
60
60
00
E0
90
50
ENDCHAR
STARTCHAR 1EAC
ENCODING 7852
SWIDTH 576 0
DWIDTH 4 0
BBX 4 8 0 -2
BITMAP
60
60
D0
F0
D0
D0
00
20
ENDCHAR
STARTCHAR 1EAD
ENCODING 7853
SWIDTH 432 0
DWIDTH 3 0
BBX 4 7 0 -2
BITMAP
60
00
E0
90
50
00
60
ENDCHAR
STARTCHAR 1EAE
ENCODING 7854
SWIDTH 576 0
DWIDTH 4 0
BBX 4 8 0 0
BITMAP
20
00
60
60
D0
F0
D0
D0
ENDCHAR
STARTCHAR 1EAF
ENCODING 7855
SWIDTH 432 0
DWIDTH 3 0
BBX 4 5 0 1
BITMAP
60
00
E0
90
50
ENDCHAR
STARTCHAR 1EB0
ENCODING 7856
SWIDTH 576 0
DWIDTH 4 0
BBX 4 8 0 0
BITMAP
40
20
60
60
D0
F0
D0
D0
ENDCHAR
STARTCHAR 1EB1
ENCODING 7857
SWIDTH 432 0
DWIDTH 3 0
BBX 4 6 0 0
BITMAP
40
60
00
E0
90
50
ENDCHAR
STARTCHAR 1EB2
ENCODING 7858
SWIDTH 576 0
DWIDTH 4 0
BBX 4 8 0 0
BITMAP
20
00
60
60
D0
F0
D0
D0
ENDCHAR
STARTCHAR 1EB3
ENCODING 7859
SWIDTH 432 0
DWIDTH 3 0
BBX 4 6 0 0
BITMAP
20
60
00
E0
90
50
ENDCHAR
STARTCHAR 1EB4
ENCODING 7860
SWIDTH 576 0
DWIDTH 4 0
BBX 4 7 0 1
BITMAP
20
60
60
D0
F0
D0
D0
ENDCHAR
STARTCHAR 1EB5
ENCODING 7861
SWIDTH 432 0
DWIDTH 3 0
BBX 4 6 0 0
BITMAP
60
60
00
E0
90
50
ENDCHAR
STARTCHAR 1EB6
ENCODING 7862
SWIDTH 576 0
DWIDTH 4 0
BBX 4 8 0 -2
BITMAP
60
60
D0
F0
D0
D0
00
20
ENDCHAR
STARTCHAR 1EB7
ENCODING 7863
SWIDTH 432 0
DWIDTH 3 0
BBX 4 7 0 -2
BITMAP
60
00
E0
90
50
00
60
ENDCHAR
STARTCHAR 1EB8
ENCODING 7864
SWIDTH 432 0
DWIDTH 3 0
BBX 3 7 0 -2
BITMAP
60
C0
E0
C0
60
20
20
ENDCHAR
STARTCHAR 1EB9
ENCODING 7865
SWIDTH 432 0
DWIDTH 3 0
BBX 3 5 0 -1
BITMAP
E0
80
60
00
60
ENDCHAR
STARTCHAR 1EBA
ENCODING 7866
SWIDTH 432 0
DWIDTH 3 0
BBX 3 7 0 0
BITMAP
20
20
60
C0
E0
C0
60
ENDCHAR
STARTCHAR 1EBB
ENCODING 7867
SWIDTH 432 0
DWIDTH 3 0
BBX 3 5 0 0
BITMAP
20
00
E0
80
60
ENDCHAR
STARTCHAR 1EBC
ENCODING 7868
SWIDTH 432 0
DWIDTH 3 0
BBX 3 6 0 0
BITMAP
60
60
C0
E0
C0
60
ENDCHAR
STARTCHAR 1EBD
ENCODING 7869
SWIDTH 432 0
DWIDTH 3 0
BBX 3 5 0 0
BITMAP
60
00
E0
80
60
ENDCHAR
STARTCHAR 1EBE
ENCODING 7870
SWIDTH 432 0
DWIDTH 3 0
BBX 3 8 0 0
BITMAP
20
00
60
60
C0
E0
C0
60
ENDCHAR
STARTCHAR 1EBF
ENCODING 7871
SWIDTH 432 0
DWIDTH 3 0
BBX 3 6 0 0
BITMAP
40
60
00
E0
80
60
ENDCHAR
STARTCHAR 1EC0
ENCODING 7872
SWIDTH 432 0
DWIDTH 3 0
BBX 3 8 0 0
BITMAP
20
00
60
60
C0
E0
C0
60
ENDCHAR
STARTCHAR 1EC1
ENCODING 7873
SWIDTH 432 0
DWIDTH 3 0
BBX 3 6 0 0
BITMAP
20
60
00
E0
80
60
ENDCHAR
STARTCHAR 1EC2
ENCODING 7874
SWIDTH 432 0
DWIDTH 3 0
BBX 4 8 0 0
BITMAP
10
00
60
60
C0
E0
C0
60
ENDCHAR
STARTCHAR 1EC3
ENCODING 7875
SWIDTH 432 0
DWIDTH 3 0
BBX 3 6 0 0
BITMAP
20
60
00
E0
80
60
ENDCHAR
STARTCHAR 1EC4
ENCODING 7876
SWIDTH 432 0
DWIDTH 3 0
BBX 4 8 0 0
BITMAP
10
20
60
60
C0
E0
C0
60
ENDCHAR
STARTCHAR 1EC5
ENCODING 7877
SWIDTH 432 0
DWIDTH 3 0
BBX 3 6 0 0
BITMAP
60
60
00
E0
80
60
ENDCHAR
STARTCHAR 1EC6
ENCODING 7878
SWIDTH 432 0
DWIDTH 3 0
BBX 3 8 0 -2
BITMAP
60
60
C0
E0
C0
60
20
20
ENDCHAR
STARTCHAR 1EC7
ENCODING 7879
SWIDTH 432 0
DWIDTH 3 0
BBX 3 7 0 -2
BITMAP
60
00
E0
80
60
00
60
ENDCHAR
STARTCHAR 1EC8
ENCODING 7880
SWIDTH 144 0
DWIDTH 1 0
BBX 2 5 0 2
BITMAP
C0
C0
C0
C0
C0
ENDCHAR
STARTCHAR 1EC9
ENCODING 7881
SWIDTH 144 0
DWIDTH 1 0
BBX 2 5 0 0
BITMAP
40
00
80
80
80
ENDCHAR
STARTCHAR 1ECA
ENCODING 7882
SWIDTH 144 0
DWIDTH 1 0
BBX 2 7 0 -2
BITMAP
C0
C0
C0
C0
C0
00
C0
ENDCHAR
STARTCHAR 1ECB
ENCODING 7883
SWIDTH 144 0
DWIDTH 1 0
BBX 1 7 0 -2
BITMAP
80
00
80
80
80
00
80
ENDCHAR
STARTCHAR 1ECC
ENCODING 7884
SWIDTH 720 0
DWIDTH 5 0
BBX 5 7 0 -2
BITMAP
70
D8
88
C8
70
20
20
ENDCHAR
STARTCHAR 1ECD
ENCODING 7885
SWIDTH 432 0
DWIDTH 3 0
BBX 4 5 0 -1
BITMAP
E0
90
60
00
60
ENDCHAR
STARTCHAR 1ECE
ENCODING 7886
SWIDTH 720 0
DWIDTH 5 0
BBX 5 7 0 0
BITMAP
20
00
70
D8
88
C8
70
ENDCHAR
STARTCHAR 1ECF
ENCODING 7887
SWIDTH 432 0
DWIDTH 3 0
BBX 4 5 0 0
BITMAP
20
00
E0
90
60
ENDCHAR
STARTCHAR 1ED0
ENCODING 7888
SWIDTH 720 0
DWIDTH 5 0
BBX 5 8 0 0
BITMAP
20
00
30
70
D8
88
C8
70
ENDCHAR
STARTCHAR 1ED1
ENCODING 7889
SWIDTH 432 0
DWIDTH 3 0
BBX 4 6 0 0
BITMAP
40
60
00
E0
90
60
ENDCHAR
STARTCHAR 1ED2
ENCODING 7890
SWIDTH 720 0
DWIDTH 5 0
BBX 5 8 0 0
BITMAP
20
00
30
70
D8
88
C8
70
ENDCHAR
STARTCHAR 1ED3
ENCODING 7891
SWIDTH 432 0
DWIDTH 3 0
BBX 4 6 0 0
BITMAP
20
60
00
E0
90
60
ENDCHAR
STARTCHAR 1ED4
ENCODING 7892
SWIDTH 720 0
DWIDTH 5 0
BBX 5 8 0 0
BITMAP
10
10
30
70
D8
88
C8
70
ENDCHAR
STARTCHAR 1ED5
ENCODING 7893
SWIDTH 432 0
DWIDTH 3 0
BBX 4 6 0 0
BITMAP
20
60
00
E0
90
60
ENDCHAR
STARTCHAR 1ED6
ENCODING 7894
SWIDTH 720 0
DWIDTH 5 0
BBX 5 7 0 1
BITMAP
20
30
70
D8
88
C8
70
ENDCHAR
STARTCHAR 1ED7
ENCODING 7895
SWIDTH 432 0
DWIDTH 3 0
BBX 4 6 0 0
BITMAP
60
60
00
E0
90
60
ENDCHAR
STARTCHAR 1ED8
ENCODING 7896
SWIDTH 720 0
DWIDTH 5 0
BBX 5 8 0 -2
BITMAP
30
70
D8
88
C8
70
20
20
ENDCHAR
STARTCHAR 1ED9
ENCODING 7897
SWIDTH 432 0
DWIDTH 3 0
BBX 4 7 0 -2
BITMAP
60
00
E0
90
60
00
60
ENDCHAR
STARTCHAR 1EDA
ENCODING 7898
SWIDTH 720 0
DWIDTH 5 0
BBX 5 7 0 0
BITMAP
10
20
78
D8
88
C8
70
ENDCHAR
STARTCHAR 1EDB
ENCODING 7899
SWIDTH 432 0
DWIDTH 3 0
BBX 4 5 0 0
BITMAP
40
10
E0
90
60
ENDCHAR
STARTCHAR 1EDC
ENCODING 7900
SWIDTH 720 0
DWIDTH 5 0
BBX 5 7 0 0
BITMAP
20
00
78
D8
88
C8
70
ENDCHAR
STARTCHAR 1EDD
ENCODING 7901
SWIDTH 432 0
DWIDTH 3 0
BBX 4 5 0 0
BITMAP
40
10
E0
90
60
ENDCHAR
STARTCHAR 1EDE
ENCODING 7902
SWIDTH 720 0
DWIDTH 5 0
BBX 5 7 0 0
BITMAP
20
00
78
D8
88
C8
70
ENDCHAR
STARTCHAR 1EDF
ENCODING 7903
SWIDTH 432 0
DWIDTH 3 0
BBX 4 5 0 0
BITMAP
20
10
E0
90
60
ENDCHAR
STARTCHAR 1EE0
ENCODING 7904
SWIDTH 720 0
DWIDTH 5 0
BBX 5 6 0 0
BITMAP
20
78
D8
88
C8
70
ENDCHAR
STARTCHAR 1EE1
ENCODING 7905
SWIDTH 432 0
DWIDTH 3 0
BBX 4 5 0 0
BITMAP
60
10
E0
90
60
ENDCHAR
STARTCHAR 1EE2
ENCODING 7906
SWIDTH 720 0
DWIDTH 5 0
BBX 5 7 0 -2
BITMAP
78
D8
88
C8
70
20
20
ENDCHAR
STARTCHAR 1EE3
ENCODING 7907
SWIDTH 432 0
DWIDTH 3 0
BBX 4 6 0 -2
BITMAP
10
E0
90
60
00
60
ENDCHAR
STARTCHAR 1EE4
ENCODING 7908
SWIDTH 576 0
DWIDTH 4 0
BBX 4 7 0 -2
BITMAP
D0
D0
D0
D0
70
00
20
ENDCHAR
STARTCHAR 1EE5
ENCODING 7909
SWIDTH 432 0
DWIDTH 3 0
BBX 3 5 0 -2
BITMAP
A0
A0
60
00
40
ENDCHAR
STARTCHAR 1EE6
ENCODING 7910
SWIDTH 576 0
DWIDTH 4 0
BBX 4 7 0 0
BITMAP
20
20
D0
D0
D0
D0
70
ENDCHAR
STARTCHAR 1EE7
ENCODING 7911
SWIDTH 432 0
DWIDTH 3 0
BBX 3 5 0 0
BITMAP
20
00
A0
A0
60
ENDCHAR
STARTCHAR 1EE8
ENCODING 7912
SWIDTH 576 0
DWIDTH 4 0
BBX 5 7 0 0
BITMAP
20
00
D8
D0
D0
D0
70
ENDCHAR
STARTCHAR 1EE9
ENCODING 7913
SWIDTH 432 0
DWIDTH 3 0
BBX 4 5 0 0
BITMAP
40
10
B0
A0
60
ENDCHAR
STARTCHAR 1EEA
ENCODING 7914
SWIDTH 576 0
DWIDTH 4 0
BBX 5 7 0 0
BITMAP
40
20
D8
D0
D0
D0
70
ENDCHAR
STARTCHAR 1EEB
ENCODING 7915
SWIDTH 432 0
DWIDTH 3 0
BBX 4 5 0 0
BITMAP
40
10
B0
A0
60
ENDCHAR
STARTCHAR 1EEC
ENCODING 7916
SWIDTH 576 0
DWIDTH 4 0
BBX 5 7 0 0
BITMAP
20
20
D8
D0
D0
D0
70
ENDCHAR
STARTCHAR 1EED
ENCODING 7917
SWIDTH 432 0
DWIDTH 3 0
BBX 4 5 0 0
BITMAP
20
10
B0
A0
60
ENDCHAR
STARTCHAR 1EEE
ENCODING 7918
SWIDTH 576 0
DWIDTH 4 0
BBX 5 6 0 0
BITMAP
20
D8
D0
D0
D0
70
ENDCHAR
STARTCHAR 1EEF
ENCODING 7919
SWIDTH 432 0
DWIDTH 3 0
BBX 4 5 0 0
BITMAP
60
10
B0
A0
60
ENDCHAR
STARTCHAR 1EF0
ENCODING 7920
SWIDTH 576 0
DWIDTH 4 0
BBX 5 7 0 -2
BITMAP
D8
D0
D0
D0
70
00
20
ENDCHAR
STARTCHAR 1EF1
ENCODING 7921
SWIDTH 432 0
DWIDTH 3 0
BBX 4 6 0 -2
BITMAP
10
B0
A0
60
00
40
ENDCHAR
STARTCHAR 1EF2
ENCODING 7922
SWIDTH 432 0
DWIDTH 3 0
BBX 4 7 0 0
BITMAP
40
00
B0
B0
E0
60
60
ENDCHAR
STARTCHAR 1EF3
ENCODING 7923
SWIDTH 432 0
DWIDTH 3 0
BBX 3 6 0 -1
BITMAP
40
00
A0
A0
60
40
ENDCHAR
STARTCHAR 1EF4
ENCODING 7924
SWIDTH 432 0
DWIDTH 3 0
BBX 4 7 0 -2
BITMAP
B0
B0
E0
60
60
00
60
ENDCHAR
STARTCHAR 1EF5
ENCODING 7925
SWIDTH 432 0
DWIDTH 3 0
BBX 4 5 0 -2
BITMAP
A0
A0
60
40
30
ENDCHAR
STARTCHAR 1EF6
ENCODING 7926
SWIDTH 432 0
DWIDTH 3 0
BBX 4 5 0 2
BITMAP
B0
B0
E0
60
60
ENDCHAR
STARTCHAR 1EF7
ENCODING 7927
SWIDTH 432 0
DWIDTH 3 0
BBX 3 6 0 -1
BITMAP
20
00
A0
A0
60
40
ENDCHAR
STARTCHAR 1EF8
ENCODING 7928
SWIDTH 432 0
DWIDTH 3 0
BBX 4 6 0 0
BITMAP
60
B0
B0
E0
60
60
ENDCHAR
STARTCHAR 1EF9
ENCODING 7929
SWIDTH 432 0
DWIDTH 3 0
BBX 3 6 0 -1
BITMAP
60
00
A0
A0
60
40
ENDCHAR
STARTCHAR 2010
ENCODING 8208
SWIDTH 288 0
DWIDTH 2 0
BBX 2 1 0 1
BITMAP
C0
ENDCHAR
STARTCHAR 2013
ENCODING 8211
SWIDTH 432 0
DWIDTH 3 0
BBX 3 1 0 1
BITMAP
E0
ENDCHAR
STARTCHAR 2014
ENCODING 8212
SWIDTH 864 0
DWIDTH 6 0
BBX 7 1 0 1
BITMAP
FE
ENDCHAR
STARTCHAR 2018
ENCODING 8216
SWIDTH 144 0
DWIDTH 1 0
BBX 2 2 0 3
BITMAP
40
80
ENDCHAR
STARTCHAR 2019
ENCODING 8217
SWIDTH 144 0
DWIDTH 1 0
BBX 1 1 1 3
BITMAP
80
ENDCHAR
STARTCHAR 201A
ENCODING 8218
SWIDTH 144 0
DWIDTH 1 0
BBX 1 1 0 0
BITMAP
80
ENDCHAR
STARTCHAR 201C
ENCODING 8220
SWIDTH 432 0
DWIDTH 3 0
BBX 3 2 0 3
BITMAP
60
A0
ENDCHAR
STARTCHAR 201D
ENCODING 8221
SWIDTH 432 0
DWIDTH 3 0
BBX 2 2 1 3
BITMAP
C0
40
ENDCHAR
STARTCHAR 201E
ENCODING 8222
SWIDTH 432 0
DWIDTH 3 0
BBX 3 2 0 -1
BITMAP
20
A0
ENDCHAR
STARTCHAR 2020
ENCODING 8224
SWIDTH 432 0
DWIDTH 3 0
BBX 3 5 0 0
BITMAP
40
E0
40
40
40
ENDCHAR
STARTCHAR 2021
ENCODING 8225
SWIDTH 432 0
DWIDTH 3 0
BBX 3 5 0 0
BITMAP
40
E0
40
E0
40
ENDCHAR
STARTCHAR 2022
ENCODING 8226
SWIDTH 576 0
DWIDTH 4 0
BBX 2 1 1 3
BITMAP
C0
ENDCHAR
STARTCHAR 2026
ENCODING 8230
SWIDTH 864 0
DWIDTH 6 0
BBX 6 1 0 0
BITMAP
D4
ENDCHAR
STARTCHAR 2030
ENCODING 8240
SWIDTH 1152 0
DWIDTH 8 0
BBX 9 5 0 0
BITMAP
4800
B000
6000
3F80
4F00
ENDCHAR
STARTCHAR 2039
ENCODING 8249
SWIDTH 288 0
DWIDTH 2 0
BBX 2 2 0 1
BITMAP
40
C0
ENDCHAR
STARTCHAR 203A
ENCODING 8250
SWIDTH 288 0
DWIDTH 2 0
BBX 1 1 1 2
BITMAP
80
ENDCHAR
STARTCHAR 2044
ENCODING 8260
SWIDTH 144 0
DWIDTH 1 0
BBX 3 5 -1 0
BITMAP
20
20
40
80
80
ENDCHAR
STARTCHAR 20A3
ENCODING 8355
SWIDTH 720 0
DWIDTH 5 0
BBX 6 5 0 0
BITMAP
60
C0
FC
D8
D8
ENDCHAR
STARTCHAR 20AB
ENCODING 8363
SWIDTH 288 0
DWIDTH 2 0
BBX 3 5 0 0
BITMAP
60
E0
A0
40
E0
ENDCHAR
STARTCHAR 2122
ENCODING 8482
SWIDTH 720 0
DWIDTH 5 0
BBX 4 2 1 3
BITMAP
B0
90
ENDCHAR
STARTCHAR 2126
ENCODING 8486
SWIDTH 720 0
DWIDTH 5 0
BBX 5 5 0 0
BITMAP
78
C8
C8
48
D8
ENDCHAR
STARTCHAR 2202
ENCODING 8706
SWIDTH 432 0
DWIDTH 3 0
BBX 4 5 0 0
BITMAP
60
20
50
A0
E0
ENDCHAR
STARTCHAR 2206
ENCODING 8710
SWIDTH 576 0
DWIDTH 4 0
BBX 5 5 0 0
BITMAP
20
50
50
50
F8
ENDCHAR
STARTCHAR 220F
ENCODING 8719
SWIDTH 720 0
DWIDTH 5 0
BBX 5 6 0 -1
BITMAP
F8
C8
C8
C8
C8
C8
ENDCHAR
STARTCHAR 2211
ENCODING 8721
SWIDTH 720 0
DWIDTH 5 0
BBX 5 6 0 -1
BITMAP
F8
40
20
30
60
F8
ENDCHAR
STARTCHAR 2212
ENCODING 8722
SWIDTH 720 0
DWIDTH 5 0
BBX 3 1 1 2
BITMAP
E0
ENDCHAR
STARTCHAR 2219
ENCODING 8729
SWIDTH 144 0
DWIDTH 1 0
BBX 2 1 0 2
BITMAP
C0
ENDCHAR
STARTCHAR 221A
ENCODING 8730
SWIDTH 576 0
DWIDTH 4 0
BBX 4 6 1 0
BITMAP
10
20
20
C0
C0
40
ENDCHAR
STARTCHAR 221E
ENCODING 8734
SWIDTH 720 0
DWIDTH 5 0
BBX 4 2 1 2
BITMAP
F0
F0
ENDCHAR
STARTCHAR 222B
ENCODING 8747
SWIDTH 576 0
DWIDTH 4 0
BBX 4 6 0 -1
BITMAP
30
20
20
20
40
C0
ENDCHAR
STARTCHAR 2248
ENCODING 8776
SWIDTH 720 0
DWIDTH 5 0
BBX 4 2 1 2
BITMAP
F0
F0
ENDCHAR
STARTCHAR 2260
ENCODING 8800
SWIDTH 720 0
DWIDTH 5 0
BBX 4 4 1 0
BITMAP
20
F0
F0
80
ENDCHAR
STARTCHAR 2264
ENCODING 8804
SWIDTH 720 0
DWIDTH 5 0
BBX 4 4 1 0
BITMAP
70
C0
30
F0
ENDCHAR
STARTCHAR 2265
ENCODING 8805
SWIDTH 720 0
DWIDTH 5 0
BBX 4 4 1 0
BITMAP
C0
30
C0
F0
ENDCHAR
STARTCHAR 22F2
ENCODING 8946
SWIDTH 720 0
DWIDTH 5 0
BBX 4 2 1 2
BITMAP
F0
F0
ENDCHAR
STARTCHAR 255F
ENCODING 9567
SWIDTH 576 0
DWIDTH 4 0
BBX 4 5 0 0
BITMAP
60
D0
F0
D0
D0
ENDCHAR
STARTCHAR 2560
ENCODING 9568
SWIDTH 432 0
DWIDTH 3 0
BBX 3 5 0 0
BITMAP
60
C0
E0
C0
60
ENDCHAR
STARTCHAR 2561
ENCODING 9569
SWIDTH 144 0
DWIDTH 1 0
BBX 2 5 0 0
BITMAP
C0
C0
C0
C0
C0
ENDCHAR
STARTCHAR 2562
ENCODING 9570
SWIDTH 720 0
DWIDTH 5 0
BBX 5 5 0 0
BITMAP
70
D8
88
C8
70
ENDCHAR
STARTCHAR 2563
ENCODING 9571
SWIDTH 576 0
DWIDTH 4 0
BBX 4 5 0 0
BITMAP
D0
D0
D0
D0
70
ENDCHAR
STARTCHAR 2564
ENCODING 9572
SWIDTH 432 0
DWIDTH 3 0
BBX 4 5 0 0
BITMAP
B0
B0
E0
60
60
ENDCHAR
STARTCHAR 2565
ENCODING 9573
SWIDTH 432 0
DWIDTH 3 0
BBX 4 3 0 1
BITMAP
E0
90
50
ENDCHAR
STARTCHAR 2566
ENCODING 9574
SWIDTH 432 0
DWIDTH 3 0
BBX 3 3 0 1
BITMAP
E0
80
60
ENDCHAR
STARTCHAR 2567
ENCODING 9575
SWIDTH 144 0
DWIDTH 1 0
BBX 1 5 0 0
BITMAP
80
00
80
80
80
ENDCHAR
STARTCHAR 2568
ENCODING 9576
SWIDTH 144 0
DWIDTH 1 0
BBX 1 3 0 0
BITMAP
80
80
80
ENDCHAR
STARTCHAR 2569
ENCODING 9577
SWIDTH 432 0
DWIDTH 3 0
BBX 4 3 0 1
BITMAP
E0
90
60
ENDCHAR
STARTCHAR 256A
ENCODING 9578
SWIDTH 432 0
DWIDTH 3 0
BBX 3 3 0 0
BITMAP
A0
A0
60
ENDCHAR
STARTCHAR 256B
ENCODING 9579
SWIDTH 432 0
DWIDTH 3 0
BBX 3 4 0 -1
BITMAP
A0
A0
60
40
ENDCHAR
STARTCHAR 25CA
ENCODING 9674
SWIDTH 432 0
DWIDTH 3 0
BBX 3 6 0 -1
BITMAP
40
A0
A0
A0
A0
40
ENDCHAR
STARTCHAR 25CB
ENCODING 9675
SWIDTH 576 0
DWIDTH 4 0
BBX 2 3 1 5
BITMAP
40
00
C0
ENDCHAR
STARTCHAR 25CF
ENCODING 9679
SWIDTH 576 0
DWIDTH 4 0
BBX 2 3 1 5
BITMAP
40
00
C0
ENDCHAR
STARTCHAR 25D8
ENCODING 9688
SWIDTH 576 0
DWIDTH 4 0
BBX 3 3 1 5
BITMAP
20
00
C0
ENDCHAR
STARTCHAR 25D9
ENCODING 9689
SWIDTH 576 0
DWIDTH 4 0
BBX 2 2 1 6
BITMAP
40
C0
ENDCHAR
STARTCHAR F000
ENCODING 61440
SWIDTH 720 0
DWIDTH 5 0
BBX 5 5 0 0
BITMAP
10
78
F0
78
78
ENDCHAR
STARTCHAR F001
ENCODING 61441
SWIDTH 432 0
DWIDTH 3 0
BBX 4 5 0 0
BITMAP
70
80
D0
90
90
ENDCHAR
STARTCHAR F002
ENCODING 61442
SWIDTH 432 0
DWIDTH 3 0
BBX 4 5 0 0
BITMAP
50
90
D0
90
90
ENDCHAR
ENDFONT
